<svg height="512pt" viewBox="0 0 512 512" width="512pt" xmlns="http://www.w3.org/2000/svg"><path d="m195.839844 396.394531c-8.269532 0-15-6.730469-15-15 0-8.285156-6.714844-15-15-15s-15 6.714844-15 15c0 19.613281 12.617187 36.324219 30.160156 42.472657v13.132812c0 8.285156 6.714844 15 15 15s15-6.714844 15-15v-13.242188c17.375-6.234374 29.839844-22.867187 29.839844-42.363281 0-24.8125-20.1875-45-45-45-8.269532 0-15-6.730469-15-15 0-8.273437 6.730468-15 15-15 8.269531 0 15 6.726563 15 15 0 8.285157 6.714844 15 15 15s15-6.714843 15-15c0-19.496093-12.464844-36.128906-29.839844-42.367187v-22.027344c0-8.285156-6.714844-15-15-15s-15 6.714844-15 15v21.917969c-17.542969 6.148437-30.160156 22.859375-30.160156 42.476562 0 24.8125 20.1875 45 45 45 8.269531 0 15 6.726563 15 15 0 8.269531-6.730469 15-15 15zm0 0"/><path d="m61.140625 487.503906c31.214844 16.710938 74.070313 24.496094 134.859375 24.496094 49.460938 0 86.6875-5.125 115.609375-16.023438 8.261719 9.789063 20.609375 16.023438 34.390625 16.023438h121c24.8125 0 45-20.1875 45-45 0-11.515625-4.355469-22.03125-11.496094-30 7.144532-7.96875 11.496094-18.484375 11.496094-30s-4.355469-22.03125-11.496094-30c7.144532-7.96875 11.496094-18.484375 11.496094-30s-4.355469-22.03125-11.496094-30c7.144532-7.96875 11.496094-18.484375 11.496094-30 0-24.8125-20.1875-45-45-45h-121c-1.460938 0-2.90625.074219-4.332031.214844-15.054688-18.234375-32.695313-33.523438-52.132813-45.25 7.121094-7.960938 11.464844-18.464844 11.464844-29.964844 0-17.925781-10.539062-33.433594-25.746094-40.664062l25.007813-76.683594c1.488281-4.570313.699219-9.574219-2.121094-13.460938-2.824219-3.890625-7.335937-6.191406-12.140625-6.191406h-47.578125c-6.195313-17.460938-22.867187-30-42.421875-30-19.558594 0-36.238281 12.539062-42.429688 30h-47.570312c-4.804688 0-9.316406 2.300781-12.140625 6.191406-2.820313 3.886719-3.609375 8.890625-2.121094 13.460938l25.007813 76.683594c-15.207032 7.230468-25.746094 22.738281-25.746094 40.664062 0 11.507812 4.347656 22.019531 11.480469 29.984375-60.183594 36.324219-102.480469 105.3125-102.480469 180.015625 0 51.605469 20.570312 88.78125 61.140625 110.503906zm420.859375-140.503906c0 8.269531-6.730469 15-15 15h-121c-8.269531 0-15-6.730469-15-15s6.730469-15 15-15h121c8.269531 0 15 6.730469 15 15zm0 60c0 8.269531-6.730469 15-15 15h-121c-8.269531 0-15-6.730469-15-15s6.730469-15 15-15h121c8.269531 0 15 6.730469 15 15zm-15 75h-121c-8.269531 0-15-6.730469-15-15s6.730469-15 15-15h121c8.269531 0 15 6.730469 15 15s-6.730469 15-15 15zm15-195c0 8.269531-6.730469 15-15 15h-121c-8.269531 0-15-6.730469-15-15s6.730469-15 15-15h121c8.269531 0 15 6.730469 15 15zm-226.429688-105h-119.136718c-.132813-.003906-.265625 0-.398438 0h-.035156c-8.269531 0-15-6.730469-15-15 0-8.253906 6.703125-14.972656 14.953125-14.996094h.042969c.035156 0 .070312-.003906.105468-.003906h119.792969c.035157 0 .074219.003906.109375.003906h.042969c8.25.023438 14.953125 6.742188 14.953125 14.996094 0 8.269531-6.730469 15-15 15h-.046875c-.125 0-.253906-.003906-.382813 0zm-89.570312-122c8.285156 0 15-6.714844 15-15 0-8.269531 6.730469-15 15-15s15 6.730469 15 15v30c0 8.285156 6.714844 15 15 15s15-6.714844 15-15v-15h24.332031l-20.21875 62h-98.226562l-20.21875-62zm-27.074219 152h114.089844c22.714844 9.488281 43.417969 24.429688 60.683594 43.714844-7.851563 8.105468-12.699219 19.136718-12.699219 31.285156 0 11.515625 4.355469 22.03125 11.496094 30-7.140625 7.96875-11.496094 18.484375-11.496094 30s4.355469 22.03125 11.496094 30c-7.140625 7.96875-11.496094 18.484375-11.496094 30s4.355469 22.03125 11.496094 30c-7.140625 7.96875-11.496094 18.484375-11.496094 30 0 .308594.015625.613281.023438.917969-25.375 9.582031-59.171876 14.082031-105.023438 14.082031-55.65625 0-94.011719-6.65625-120.699219-20.945312-30.90625-16.546876-45.300781-43.253907-45.300781-84.054688 0-70.75 44.65625-138.171875 108.925781-165zm0 0"/></svg>